<svg width="40" height="40" viewBox="0 0 40 40" fill="none" xmlns="http://www.w3.org/2000/svg">
<mask id="path-1-inside-1_1_3" fill="white">
<path d="M40 20C40 31.0457 31.0457 40 20 40C8.9543 40 0 31.0457 0 20C0 8.9543 8.9543 0 20 0C31.0457 0 40 8.9543 40 20Z"/>
</mask>
<path d="M19.213 31.6188C19.8061 32.1971 20.7558 32.1851 21.3341 31.5919L30.7585 21.9259C31.3368 21.3327 31.3248 20.3831 30.7316 19.8047C30.1384 19.2264 29.1888 19.2384 28.6104 19.8316L20.2333 28.4236L11.6412 20.0465C11.0481 19.4681 10.0984 19.4802 9.5201 20.0733C8.94177 20.6665 8.9538 21.6161 9.54696 22.1945L19.213 31.6188ZM18.5001 10.019L18.7603 30.5638L21.76 30.5258L21.4999 9.98101L18.5001 10.019ZM37 20C37 29.3888 29.3888 37 20 37V43C32.7025 43 43 32.7025 43 20H37ZM20 37C10.6112 37 3 29.3888 3 20H-3C-3 32.7025 7.29745 43 20 43V37ZM3 20C3 10.6112 10.6112 3 20 3V-3C7.29745 -3 -3 7.29745 -3 20H3ZM20 3C29.3888 3 37 10.6112 37 20H43C43 7.29745 32.7025 -3 20 -3V3Z" fill="black" mask="url(#path-1-inside-1_1_3)"/>
</svg>
